<svg width="91" height="91" viewBox="0 0 91 91" fill="none" xmlns="http://www.w3.org/2000/svg">
<g clip-path="url(#clip0)">
<path d="M62.8738 38.7157C59.0187 36.4899 54.684 35.5743 50.2924 36.0487C49.18 33.5308 47.611 31.3024 45.6534 29.4417L53.6839 26.6934C53.6867 26.6925 53.6891 26.6909 53.6917 26.6899C53.7397 26.6731 53.7859 26.6521 53.8306 26.6279C53.8378 26.624 53.8449 26.6203 53.852 26.6163C53.8947 26.5917 53.9357 26.564 53.9747 26.5328C53.9808 26.528 53.9865 26.523 53.9925 26.5179C54.0307 26.4859 54.0671 26.4513 54.1003 26.413C54.1034 26.4096 54.1059 26.4058 54.1088 26.4024C54.1393 26.3663 54.1672 26.3275 54.1928 26.2863C54.1963 26.2809 54.2 26.2757 54.2032 26.2701C54.2049 26.2671 54.2071 26.2644 54.2089 26.2613C54.232 26.2213 54.2508 26.1799 54.2676 26.1384C54.2709 26.1302 54.2742 26.1222 54.2772 26.1138C54.2946 26.0672 54.3085 26.0199 54.3182 25.9722C54.3195 25.9659 54.3203 25.9595 54.3216 25.9532C54.3311 25.9017 54.3372 25.8499 54.3383 25.7983C54.3383 25.7961 54.3381 25.7939 54.3382 25.7917C54.339 25.7366 54.3351 25.6818 54.3265 25.6278C54.3263 25.6261 54.3264 25.6246 54.3262 25.6229L54.3253 25.6173L53.2365 18.8708C53.1901 18.5832 53.0167 18.3317 52.7645 18.1861L49.918 16.5427L46.1899 14.3903L43.3436 12.747C43.0913 12.6013 42.7869 12.5769 42.5146 12.6805L36.1281 15.1103L36.1228 15.1123C36.1212 15.1129 36.1199 15.1138 36.1184 15.1144C36.0673 15.134 36.018 15.1581 35.9706 15.1863C35.9688 15.1874 35.9668 15.1883 35.9649 15.1895C35.9207 15.2164 35.8788 15.2476 35.839 15.2815C35.8341 15.2856 35.829 15.2895 35.8243 15.2938C35.7879 15.3262 35.7539 15.3619 35.7221 15.4002C35.7166 15.4069 35.7111 15.4138 35.7056 15.4207C35.6779 15.4562 35.6517 15.493 35.6285 15.5331C35.6267 15.5362 35.6255 15.5394 35.6238 15.5424C35.6207 15.548 35.6181 15.5538 35.6149 15.5595C35.5919 15.6023 35.5723 15.6459 35.5564 15.6903C35.5548 15.6946 35.5529 15.6987 35.5515 15.7029C35.5349 15.751 35.5231 15.7998 35.5145 15.8487C35.5132 15.8565 35.5117 15.8639 35.5105 15.8716C35.503 15.921 35.4995 15.9703 35.4996 16.0197C35.4996 16.0277 35.5 16.0358 35.5002 16.0439C35.5016 16.0949 35.5068 16.1454 35.516 16.1952C35.5166 16.1981 35.5163 16.2009 35.5169 16.2038L37.1537 24.5421C28.1727 21.9084 18.201 25.6325 13.3187 34.0889C7.59219 44.0076 11.0028 56.7357 20.9212 62.4621C24.7763 64.6879 29.111 65.6035 33.5027 65.1292C35.2878 69.1695 38.2479 72.4657 42.1033 74.6916C52.0218 80.4181 64.7499 77.0075 70.4764 67.0889C76.2029 57.1704 72.7923 44.4421 62.8738 38.7157ZM51.3975 19.6334L52.0889 23.9182L49.3587 22.3419L50.1017 18.8853L51.3975 19.6334ZM48.3768 24.0123L51.0402 25.55L43.9382 27.9807C43.9142 27.9625 43.8907 27.9441 43.8669 27.926L48.3768 24.0123ZM45.8328 16.4205L48.3387 17.8673L47.5957 21.3239L43.2108 18.7923L45.8328 16.4205ZM46.6015 22.9875L42.2113 26.7973C42.0398 26.6918 41.8672 26.5876 41.692 26.4865C41.5844 26.4244 41.473 26.3623 41.3594 26.3C41.2941 26.2638 41.2288 26.2274 41.1631 26.192L42.2673 20.4852L46.6015 22.9875ZM42.7741 14.6546L44.0696 15.4026L41.4477 17.7743L38.7177 16.1981L42.7741 14.6546ZM37.8287 17.9225L40.492 19.4602L39.357 25.3261C39.3298 25.3147 39.3026 25.3033 39.2755 25.292L37.8287 17.9225ZM21.8901 60.7839C12.8969 55.5917 9.80462 44.051 14.9968 35.0578C19.6939 26.9222 29.5863 23.6162 38.0881 26.9035C38.3002 26.9856 38.5109 27.0721 38.7205 27.1621C38.7466 27.1734 38.7729 27.1848 38.7991 27.1962C39.0799 27.3183 39.3568 27.4491 39.6312 27.5845C39.6355 27.5867 39.6391 27.5898 39.6434 27.5918C39.8457 27.692 40.0299 27.7861 40.2021 27.8771C40.3771 27.9708 40.5515 28.0654 40.7229 28.1643C41.0662 28.3625 41.3944 28.5811 41.7514 28.819C41.7688 28.8306 41.7866 28.8416 41.8044 28.8519C41.818 28.8597 41.8325 28.8648 41.8463 28.8719C42.2751 29.1644 42.7011 29.4806 43.1317 29.8273C43.1709 29.8589 43.2122 29.887 43.255 29.9117C43.2568 29.9127 43.2588 29.9136 43.2606 29.9145C45.7047 31.91 47.59 34.475 48.7855 37.4605C48.9087 37.768 49.0237 38.0793 49.1307 38.3935C49.2349 38.6996 49.331 39.0086 49.4194 39.32C49.4671 39.4882 49.513 39.657 49.5561 39.8265C49.6792 40.3099 49.7833 40.7982 49.8678 41.2896C49.8678 41.2896 49.8678 41.2896 49.8678 41.2898C50.6119 45.6119 49.8123 50.0869 47.6163 53.8905C45.5772 57.4223 42.4346 60.201 38.7016 61.7943C38.6993 61.7879 38.6967 61.7816 38.6943 61.7753C38.6342 61.6113 38.5767 61.4464 38.5222 61.2802C38.5118 61.2483 38.5025 61.2157 38.4923 61.1836C38.4494 61.0494 38.4078 60.9149 38.3686 60.7795C38.3515 60.7202 38.336 60.6607 38.3197 60.6011C38.2896 60.4919 38.2599 60.3823 38.2325 60.2724C38.2158 60.2058 38.2003 60.1389 38.1846 60.0722C38.16 59.9679 38.1361 59.8633 38.1138 59.7584C38.1069 59.7264 38.1007 59.6941 38.094 59.6621C40.5262 58.5767 42.6677 56.9205 44.3224 54.8375C44.6551 54.4185 44.5854 53.8091 44.1665 53.4764C43.7471 53.143 43.1379 53.2134 42.8053 53.6323C41.4624 55.3228 39.755 56.6935 37.8194 57.6487C37.6245 54.7507 38.2859 51.9067 39.7595 49.3542C41.2332 46.8018 43.3656 44.8071 45.9726 43.5269C46.1291 45.9068 45.7073 48.2834 44.7278 50.469C44.5229 50.9265 44.7016 51.4584 45.1265 51.7037C45.1552 51.7203 45.185 51.7355 45.2158 51.7493C45.7042 51.9682 46.2774 51.7496 46.4962 51.2613C47.8031 48.3452 48.2369 45.1293 47.7513 41.9616C47.5558 40.6868 47.2133 39.4388 46.7317 38.2441C46.6629 38.0735 46.5912 37.9037 46.5167 37.7355C45.0838 34.4947 42.7006 31.8428 39.6246 30.0669C36.1578 28.0654 32.0864 27.3803 28.1606 28.1379C27.6353 28.2393 27.2916 28.7475 27.3929 29.2728C27.4943 29.7981 28.0025 30.1418 28.5277 30.0405C31.9958 29.3711 35.5926 29.9765 38.6556 31.7449C41.0807 33.1451 43.0163 35.1622 44.3046 37.6139C40.1995 39.3735 36.7441 42.4318 34.5005 46.3178C32.257 50.2037 31.3361 54.7255 31.8648 59.1604C29.0974 59.2705 26.3827 58.6028 23.9576 57.2027C16.9388 53.1504 14.5255 44.1435 18.5778 37.1248C20.0848 34.5145 22.3171 32.459 25.0332 31.1803C25.5173 30.9525 25.725 30.3752 25.4971 29.891C25.2693 29.4067 24.6921 29.1992 24.208 29.4272C21.1324 30.8749 18.6053 33.2017 16.8996 36.1559C12.3132 44.1 15.0447 54.2943 22.9887 58.8808C25.8058 60.5072 28.968 61.2631 32.1865 61.0873C32.194 61.1219 32.2027 61.1562 32.2104 61.1906C32.2309 61.2828 32.2523 61.3748 32.2741 61.4668C32.2948 61.555 32.3157 61.643 32.3377 61.731C32.3606 61.823 32.3847 61.9148 32.4089 62.0064C32.432 62.0939 32.4551 62.1812 32.4793 62.2682C32.5047 62.3595 32.5312 62.4505 32.5578 62.5414C32.5832 62.6281 32.6084 62.7149 32.6349 62.8013C32.6626 62.8917 32.6915 62.9818 32.7205 63.0718C32.7398 63.1318 32.7577 63.192 32.7774 63.2516C28.9743 63.5587 25.2336 62.7143 21.8901 60.7839ZM43.0721 73.0133C39.3789 70.8811 36.5908 67.6665 35.0093 63.7172C34.5169 62.487 34.1526 61.1987 33.9269 59.8879C33.1831 55.5656 33.9826 51.0906 36.1786 47.2871C38.2176 43.7553 41.3601 40.9766 45.0932 39.3833C45.0955 39.3893 45.098 39.3954 45.1003 39.4015C45.1606 39.5656 45.2181 39.7309 45.2726 39.8972C45.2834 39.9302 45.293 39.9639 45.3036 39.9971C45.3461 40.1302 45.3874 40.2636 45.4262 40.3978C45.4435 40.4579 45.4592 40.5183 45.4757 40.5786C45.5055 40.6869 45.5349 40.7955 45.5622 40.9045C45.5792 40.972 45.5948 41.0398 45.6106 41.1075C45.6349 41.2107 45.6585 41.3141 45.6807 41.4178C45.6876 41.4504 45.6941 41.4833 45.7007 41.516C42.5173 42.939 39.8314 45.3542 38.0812 48.3857C36.1968 51.6496 35.4731 55.4959 36.0438 59.2158C36.2672 60.6725 36.6826 62.0945 37.2782 63.4419C38.7111 66.6827 41.0944 69.3347 44.1704 71.1106C47.9381 73.2859 52.336 73.8983 56.5536 72.8351C57.0723 72.7043 57.3869 72.1777 57.2561 71.6588C57.1254 71.1399 56.5986 70.8255 56.0797 70.9562C52.3535 71.8956 48.4682 71.3544 45.1392 69.4324C42.7141 68.0323 40.7786 66.0151 39.4901 63.5633C43.5951 61.8038 47.0506 58.7455 49.2942 54.8594C51.5378 50.9733 52.4587 46.4516 51.93 42.0169C54.6975 41.9068 57.4122 42.5745 59.8373 43.9746C66.856 48.0269 69.2693 57.0338 65.2171 64.0525C63.853 66.4151 61.8698 68.3452 59.4817 69.6336C59.0107 69.8877 58.835 70.4755 59.0891 70.9463C59.3431 71.4174 59.9309 71.593 60.4018 71.3389C63.1061 69.8799 65.3516 67.6953 66.8953 65.0214C71.4818 57.0774 68.7503 46.883 60.8062 42.2966C57.9893 40.6702 54.827 39.9142 51.6084 40.09C51.6011 40.0565 51.5928 40.023 51.5853 39.9896C51.5642 39.8948 51.5423 39.8003 51.52 39.7057C51.4998 39.62 51.4795 39.5345 51.4582 39.4491C51.4346 39.3545 51.4098 39.2601 51.3848 39.1658C51.3624 39.0811 51.3401 38.9965 51.3167 38.9121C51.2905 38.8179 51.2632 38.7242 51.2357 38.6303C51.2111 38.5463 51.1866 38.4623 51.1611 38.3788C51.1324 38.2851 51.1023 38.1917 51.0721 38.0984C51.0536 38.0408 51.0365 37.983 51.0175 37.9257C54.8205 37.6193 58.561 38.4636 61.9046 40.3941C70.8978 45.5863 73.9901 57.127 68.7979 66.1202C63.6061 75.1132 52.0654 78.2056 43.0721 73.0133Z" fill="#F9C94E"/>
</g>
<defs>
<clipPath id="clip0">
<rect width="66" height="66" fill="white" transform="translate(33) rotate(30)"/>
</clipPath>
</defs>
</svg>
