<svg width="24" height="24" viewBox="0 0 24 24" fill="none" xmlns="http://www.w3.org/2000/svg">
<path d="M19.07 4.92992C17.184 3.10834 14.6579 2.1004 12.036 2.12318C9.414 2.14596 6.90588 3.19765 5.0518 5.05174C3.19772 6.90582 2.14603 9.41394 2.12324 12.0359C2.10046 14.6579 3.1084 17.1839 4.92998 19.0699C6.816 20.8915 9.34203 21.8994 11.964 21.8767C14.586 21.8539 17.0941 20.8022 18.9482 18.9481C20.8022 17.094 21.8539 14.5859 21.8767 11.9639C21.8995 9.34197 20.8916 6.81594 19.07 4.92992ZM16.26 14.8399C16.3537 14.9329 16.4281 15.0435 16.4789 15.1653C16.5296 15.2872 16.5558 15.4179 16.5558 15.5499C16.5558 15.6819 16.5296 15.8126 16.4789 15.9345C16.4281 16.0564 16.3537 16.167 16.26 16.2599C16.1665 16.3526 16.0557 16.4259 15.9339 16.4757C15.8121 16.5255 15.6816 16.5507 15.55 16.5499C15.4184 16.5507 15.2879 16.5255 15.1661 16.4757C15.0442 16.4259 14.9334 16.3526 14.84 16.2599L12 13.4099L9.15998 16.2599C9.06654 16.3526 8.95573 16.4259 8.83389 16.4757C8.71205 16.5255 8.58159 16.5507 8.44998 16.5499C8.31838 16.5507 8.18791 16.5255 8.06608 16.4757C7.94424 16.4259 7.83342 16.3526 7.73998 16.2599C7.64625 16.167 7.57186 16.0564 7.52109 15.9345C7.47032 15.8126 7.44418 15.6819 7.44418 15.5499C7.44418 15.4179 7.47032 15.2872 7.52109 15.1653C7.57186 15.0435 7.64625 14.9329 7.73998 14.8399L10.59 11.9999L7.73998 9.15992C7.64674 9.06668 7.57278 8.95599 7.52232 8.83417C7.47186 8.71235 7.44589 8.58178 7.44589 8.44992C7.44589 8.31806 7.47186 8.18749 7.52232 8.06567C7.57278 7.94385 7.64674 7.83316 7.73998 7.73992C7.83322 7.64668 7.94391 7.57272 8.06573 7.52226C8.18756 7.4718 8.31812 7.44583 8.44998 7.44583C8.58184 7.44583 8.71241 7.4718 8.83423 7.52226C8.95605 7.57272 9.06674 7.64668 9.15998 7.73992L12 10.5899L14.84 7.73992C14.9332 7.64668 15.0439 7.57272 15.1657 7.52226C15.2876 7.4718 15.4181 7.44583 15.55 7.44583C15.6818 7.44583 15.8124 7.4718 15.9342 7.52226C16.0561 7.57272 16.1667 7.64668 16.26 7.73992C16.3532 7.83316 16.4272 7.94385 16.4776 8.06567C16.5281 8.18749 16.5541 8.31806 16.5541 8.44992C16.5541 8.58178 16.5281 8.71235 16.4776 8.83417C16.4272 8.95599 16.3532 9.06668 16.26 9.15992L13.41 11.9999L16.26 14.8399Z" fill="#C4C4C4"/>
</svg>
