<svg width="24" height="24" viewBox="0 0 24 24" fill="none" xmlns="http://www.w3.org/2000/svg">
<path d="M12 2C10.0222 2 8.08879 2.58649 6.4443 3.6853C4.79981 4.78412 3.51809 6.3459 2.76121 8.17317C2.00433 10.0004 1.8063 12.0111 2.19215 13.9509C2.578 15.8907 3.53041 17.6725 4.92894 19.0711C6.32746 20.4696 8.10929 21.422 10.0491 21.8079C11.9889 22.1937 13.9996 21.9957 15.8268 21.2388C17.6541 20.4819 19.2159 19.2002 20.3147 17.5557C21.4135 15.9112 22 13.9778 22 12C22 10.6868 21.7413 9.38642 21.2388 8.17317C20.7363 6.95991 19.9997 5.85752 19.0711 4.92893C18.1425 4.00035 17.0401 3.26375 15.8268 2.7612C14.6136 2.25866 13.3132 2 12 2ZM16.71 9.71L10.71 15.71C10.617 15.8037 10.5064 15.8781 10.3846 15.9289C10.2627 15.9797 10.132 16.0058 10 16.0058C9.86799 16.0058 9.73729 15.9797 9.61543 15.9289C9.49357 15.8781 9.38297 15.8037 9.29 15.71L7.29 13.71C7.19677 13.6168 7.12281 13.5061 7.07234 13.3842C7.02188 13.2624 6.99591 13.1319 6.99591 13C6.99591 12.8681 7.02188 12.7376 7.07234 12.6158C7.12281 12.4939 7.19677 12.3832 7.29 12.29C7.38324 12.1968 7.49393 12.1228 7.61576 12.0723C7.73758 12.0219 7.86814 11.9959 8 11.9959C8.13186 11.9959 8.26243 12.0219 8.38425 12.0723C8.50608 12.1228 8.61677 12.1968 8.71 12.29L10 13.59L15.29 8.29C15.4783 8.1017 15.7337 7.99591 16 7.99591C16.2663 7.99591 16.5217 8.1017 16.71 8.29C16.8983 8.4783 17.0041 8.7337 17.0041 9C17.0041 9.2663 16.8983 9.5217 16.71 9.71Z" fill="white"/>
</svg>
